Coordinates
version=1
nRows=22
nColumns=18
inDegrees=yes

Units are S.I. units (second, meters, Newtons, ...)
If the header above contains a line with 'inDegrees', this indicates whether rotational values are in degrees (yes) or radians (no).

endheader
time	ground_thorax_rot_x	ground_thorax_rot_y	ground_thorax_rot_z	ground_thorax_tx	ground_thorax_ty	ground_thorax_tz	clav_prot	clav_elev	scapula_abduction	scapula_elevation	scapula_upward_rot	scapula_winging	plane_elv	shoulder_elv	axial_rot	elbow_flexion	pro_sup
      3.46000000	      2.83614440	     -5.20731922	     -8.62518464	     -0.00544191	      0.00388344	      0.00210746	    -21.26574756	     -4.59010972	    -11.22194371	     -3.67362015	     11.12013090	      5.88073840	    -17.15208820	     16.27434305	     52.50510883	      0.00000000	     34.32000000
      3.47000000	      3.00383476	     -5.22587706	     -8.62325911	     -0.00541173	      0.00403454	      0.00227882	    -21.28504189	     -4.59080011	    -11.22085358	     -3.69196255	     11.18173340	      5.86695287	    -17.07307748	     16.43824093	     52.52850989	      0.00000000	     34.32000000
      3.48000000	      3.00271161	     -5.22514032	     -8.62317300	     -0.00538811	      0.00404832	      0.00235588	    -21.28501484	     -4.59041290	    -11.22053709	     -3.69183897	     11.18238543	      5.86666592	    -17.07272901	     16.43875145	     52.52857408	      0.00000000	     34.32000000
      3.49000000	      2.96029151	     -5.19070279	     -8.61813415	     -0.00545265	      0.00402092	      0.00223513	    -21.27149047	     -4.55260971	    -11.19887660	     -3.66552428	     11.19574977	      5.85048641	    -17.02455029	     16.41388625	     52.52988407	      0.00000000	     34.32000000
      3.50000000	      2.96065098	     -5.19094651	     -8.61811116	     -0.00542653	      0.00407596	      0.00214391	    -21.27137007	     -4.55251065	    -11.19893396	     -3.66532391	     11.19531771	      5.85055611	    -17.02429212	     16.41307925	     52.52985410	      0.00000000	     34.32000000
      3.51000000	      2.97711542	     -5.19304351	     -8.61420949	     -0.00542317	      0.00414771	      0.00210884	    -21.26289569	     -4.55245941	    -11.19836922	     -3.65794244	     11.17002837	      5.85624807	    -17.01163067	     16.37143501	     52.52863908	      0.00000000	     34.32000000
      3.52000000	      2.89734718	     -5.22293028	     -8.59467272	     -0.00543503	      0.00401363	      0.00207940	    -21.24711637	     -4.49744651	    -11.20900596	     -3.60276924	     11.12634713	      5.84910137	    -16.89492790	     16.22385167	     52.54188678	      0.00000000	     34.32000000
      3.53000000	      2.89720436	     -5.22358382	     -8.59509996	     -0.00547350	      0.00402712	      0.00205705	    -21.24727700	     -4.49714066	    -11.20932400	     -3.60256087	     11.12641394	      5.84900389	    -16.89480075	     16.22409068	     52.54195102	      0.00000000	     34.32000000
      3.54000000	      2.91883751	     -5.27330087	     -8.60050122	     -0.00543991	      0.00394320	      0.00217197	    -21.26861590	     -4.48700245	    -11.22910374	     -3.60560587	     11.16190245	      5.83864111	    -16.86816102	     16.27146751	     52.55194908	      0.00000000	     34.32000000
      3.55000000	      2.91886597	     -5.27339392	     -8.60065271	     -0.00551141	      0.00383962	      0.00229750	    -21.26879111	     -4.48699511	    -11.22913729	     -3.60574251	     11.16239003	      5.83852946	    -16.86816730	     16.27248156	     52.55202026	      0.00000000	     34.32000000
      3.56000000	      3.03728461	     -5.27265648	     -8.62047065	     -0.00549472	      0.00395830	      0.00236469	    -21.27698005	     -4.48655121	    -11.20785699	     -3.62311252	     11.22600680	      5.82292952	    -16.83687767	     16.39747077	     52.56443833	      0.00000000	     34.32000000
      3.57000000	      3.00955815	     -5.26392141	     -8.62768302	     -0.00543741	      0.00398159	      0.00229940	    -21.27335297	     -4.46921176	    -11.20313188	     -3.61083866	     11.23083506	      5.81605102	    -16.82994757	     16.39219276	     52.56449548	      0.00000000	     34.32000000
      3.58000000	      2.92349256	     -5.21781430	     -8.63720857	     -0.00544713	      0.00396191	      0.00216830	    -21.24069820	     -4.40585570	    -11.17989442	     -3.55152239	     11.19913270	      5.80215385	    -16.79482889	     16.25843945	     52.55805616	      0.00000000	     34.32000000
      3.59000000	      2.92243416	     -5.21822867	     -8.63763547	     -0.00541952	      0.00413722	      0.00208330	    -21.24077905	     -4.40511827	    -11.18012641	     -3.55100359	     11.19929836	      5.80189428	    -16.79466155	     16.25815085	     52.55806226	      0.00000000	     34.32000000
      3.60000000	      2.90387398	     -5.28238059	     -8.61529295	     -0.00539751	      0.00397769	      0.00211816	    -21.27202632	     -4.24656548	    -11.22072462	     -3.45652367	     11.29480937	      5.73227387	    -16.66539488	     16.08612053	     52.56666871	      0.00000000	     34.32000000
      3.61000000	      2.89274030	     -5.30369510	     -8.62816539	     -0.00541103	      0.00390520	      0.00209181	    -21.28126926	     -4.23487737	    -11.23385115	     -3.45090788	     11.30533436	      5.72682895	    -16.66845806	     16.10875887	     52.56824319	      0.00000000	     34.32000000
      3.62000000	      2.89261579	     -5.30475865	     -8.62865684	     -0.00547778	      0.00391505	      0.00205490	    -21.28158093	     -4.23461253	    -11.23438445	     -3.45075865	     11.30546976	      5.72674005	    -16.66860957	     16.10922368	     52.56826704	      0.00000000	     34.32000000
      3.63000000	      2.87375424	     -5.32897964	     -8.63441217	     -0.00542008	      0.00391060	      0.00199554	    -21.29337144	     -4.22489624	    -11.24815636	     -3.44840234	     11.32186796	      5.72060537	    -16.66965754	     16.13433204	     52.57033303	      0.00000000	     34.32000000
      3.64000000	      2.87289109	     -5.32922708	     -8.63501695	     -0.00544722	      0.00396324	      0.00206069	    -21.29354648	     -4.22437573	    -11.24836540	     -3.44811590	     11.32225749	      5.72034468	    -16.66971157	     16.13510790	     52.57037935	      0.00000000	     34.32000000
      3.65000000	      2.85718805	     -5.34724725	     -8.65944696	     -0.00540746	      0.00391682	      0.00212389	    -21.29997016	     -4.20422573	    -11.25985224	     -3.43527580	     11.33077867	      5.71265880	    -16.67540461	     16.16643255	     52.57191292	      0.00000000	     34.32000000
      3.66000000	      2.85634049	     -5.34739438	     -8.66022185	     -0.00545148	      0.00397384	      0.00219545	    -21.30007164	     -4.20356050	    -11.25998311	     -3.43487252	     11.33115972	      5.71237108	    -16.67553707	     16.16727179	     52.57194137	      0.00000000	     34.32000000
      3.67000000	      2.85564862	     -5.34739270	     -8.66085047	     -0.00542834	      0.00402266	      0.00220551	    -21.30011426	     -4.20290951	    -11.26006664	     -3.43444844	     11.33143618	      5.71210958	    -16.67564433	     16.16788450	     52.57196555	      0.00000000	     34.32000000
